# xmcd
#
# Track frame offsets:
# 150
# 24293
# 48409
# 72525
#
# Disc length: 1287 seconds
#
#
# Revision: 0
# Processed by: cddbd v1.5.2PL0 Copyright (c) Steve Scherf et al.
# Submitted via: FreeRIP 2.944 
#
DISCID=2f050504
DTITLE=Mello K. - Do Me
DYEAR=1993
DGENRE=Rap
TTITLE0=Do Me (Vocal Mix)
TTITLE1=Do Me (T.V. Track Mix)
TTITLE2=Do Me (Vocal Mix Without Shawny)
TTITLE3=Do Me (Instrumental)
EXTD=Cashflow420.com
EXTT0=
EXTT1=
EXTT2=
EXTT3=
PLAYORDER=
